PathFileType	4	(x/y/z)	S01_P20_T17
DataRate	CameraRate	NumFrames	NumMarkers	Units	OrigDataRate	OrigDataStartFrame	OrigNumFrames
240	240	9	51	mm	240	157	418
Frame#	Time	Sternum			R.Acromium			L.Acromium			Top.Head			R.ASIS			L.ASIS			R.PSIS			L.PSIS			R.Great.Tro			L.Great.Tro			R.Iliac.Crest			L.Iliac.Crest			V.Sacral			R.Thigh.Upper.Post			R.Thigh.Lower.Ant			R.Thigh.Lower.Post			R.Thigh.Upper.Ant			R.Knee.Lat			R.Knee.Med			R.Shank.Upper.Post			R.Shank.Lower.Ant			R.Shank.Lower.Post			R.Shank.Upper.Ant			R.Ankle.Lat			R.Ankle.Med			R.Heel.Upper			R.Heel.Med			R.Heel.Lat			R.Toe.Lat			R.Toe.Med			R.Toe.Tip			L.Thigh.Upper.Post			L.Thigh.Lower.Ant			L.Thigh.Lower.Post			L.Thigh.Upper.Ant			L.Knee.Lat			L.Knee.Med			L.Shank.Upper.Post			L.Shank.Lower.Ant			L.Shank.Lower.Post			L.Shank.Upper.Ant			L.Ankle.Lat			L.Ankle.Med			L.Heel.Upper			L.Heel.Med			L.Heel.Lat			L.Toe.Lat			L.Toe.Med			L.Toe.Tip			Cervical.Spine			Back			
		X1	Y1	Z1	X2	Y2	Z2	X3	Y3	Z3	X4	Y4	Z4	X5	Y5	Z5	X6	Y6	Z6	X7	Y7	Z7	X8	Y8	Z8	X9	Y9	Z9	X10	Y10	Z10	X11	Y11	Z11	X12	Y12	Z12	X13	Y13	Z13	X14	Y14	Z14	X15	Y15	Z15	X16	Y16	Z16	X17	Y17	Z17	X18	Y18	Z18	X19	Y19	Z19	X20	Y20	Z20	X21	Y21	Z21	X22	Y22	Z22	X23	Y23	Z23	X24	Y24	Z24	X25	Y25	Z25	X26	Y26	Z26	X27	Y27	Z27	X28	Y28	Z28	X29	Y29	Z29	X30	Y30	Z30	X31	Y31	Z31	X32	Y32	Z32	X33	Y33	Z33	X34	Y34	Z34	X35	Y35	Z35	X36	Y36	Z36	X37	Y37	Z37	X38	Y38	Z38	X39	Y39	Z39	X40	Y40	Z40	X41	Y41	Z41	X42	Y42	Z42	X43	Y43	Z43	X44	Y44	Z44	X45	Y45	Z45	X46	Y46	Z46	X47	Y47	Z47	X48	Y48	Z48	X49	Y49	Z49	X50	Y50	Z50	X51	Y51	Z51	

157	0.65	-383.48	1250.7	300.84	-477.72	1497.2	494.16	-521.76	1526.9	166.7	-506.11	1831.3	342.64	-417.89	1011.3	451.34	-439.52	1000.2	185.5	-663.03	1048.3	376.8	-673.13	1041.2	274.73	-483.76	963.55	538.81	-550.15	945.52	115.1	-504.44	1103.6	527.06	-551.67	1083.1	120.9	-680.64	1008	327.26	-420.14	660.02	510.2	-336.18	609.64	474.89	-395.86	577.51	483.39	-356.66	694.84	501.52	-360.13	520.49	472.02	-365.39	527.24	330.93	-427.48	366.25	493.05	-381.67	278.65	443.02	-441.2	297.38	480.95	-370.41	348.97	462.78	-477.69	102.41	438.23	-448.28	106.9	344.21	-549.68	72.764	380.06	-534.61	42.892	351.27	-540.58	42.214	415.81	-350.41	35.84	475.86	-316.6	39.576	350.76	-254.59	56.581	407.1	-544.12	663.53	129.34	-459.91	602.97	92.306	-520.26	575.86	136.72	-489.81	693.42	91.881	-475.27	506.88	97.199	-409.44	489.65	235.18	-594.43	461.37	95.58	-631.52	355.91	111.62	-655.73	409.66	105.03	-566.11	402.49	100.67	-827.24	293.32	152.61	-788.78	265.13	240.55	-884.12	326.64	215.07	-893.83	300.95	247.74	-907.58	309.52	188.05	-817.65	137.86	111.07	-779.14	104.22	225.07	-739.72	70.313	161.38	-588.45	1573.8	344.7	-690.76	1253.8	350.31
158	0.65417	-378.23	1252.2	300.69	-472.21	1498.5	494.43	-516.83	1528.4	167.09	-500.71	1832.7	343.5	-412.41	1012.3	451.44	-434.25	1001.9	185.61	-657.56	1049.6	377.19	-667.68	1042.6	275.1	-478.52	964.36	538.88	-544.67	947.24	115.3	-498.83	1104.8	527.26	-546.8	1084.7	121.19	-675.23	1009.3	327.61	-417.2	660.4	510.23	-333.69	609.3	474.88	-393.8	577.66	483.45	-353.43	694.69	501.48	-358.5	520.29	472.09	-363.78	527.03	331.03	-426.58	366.28	493.14	-381.04	278.54	443.12	-440.53	297.45	481.01	-369.56	348.82	462.9	-477.58	102.53	438.25	-448.16	107.03	344.24	-549.62	72.903	380.08	-534.58	43.028	351.29	-540.54	42.328	415.82	-350.37	35.812	475.88	-316.57	39.627	350.8	-254.56	56.521	407.16	-535.09	664.93	129.4	-450.43	605.27	92.367	-510.15	577.55	136.94	-481.21	695.35	91.816	-464.76	509.25	97.431	-398.82	492.6	235.56	-583.72	463.5	96.263	-620.98	358.07	111.81	-644.77	411.48	105.61	-555.11	404.75	101.06	-815.63	294.36	153.28	-776.82	266.27	241.14	-872.7	327.03	215.93	-882.15	301.19	248.53	-896.05	309.79	188.87	-804.8	139.17	111.35	-765.82	105.54	225.2	-726.28	72.079	161.35	-583.18	1575.2	345.26	-685.38	1255.1	350.89
159	0.65833	-373	1253.7	300.55	-466.72	1499.9	494.69	-511.9	1529.9	167.47	-495.31	1834.1	344.3	-406.95	1013.3	451.54	-428.97	1003.7	185.72	-652.12	1051	377.55	-662.22	1044.1	275.43	-473.33	965.2	538.94	-539.18	949.04	115.48	-493.23	1106.1	527.44	-541.9	1086.4	121.47	-669.82	1010.8	327.92	-414.34	660.81	510.25	-331.3	608.98	474.86	-391.85	577.85	483.5	-350.31	694.55	501.42	-356.99	520.14	472.16	-362.27	526.85	331.12	-425.78	366.34	493.21	-380.48	278.47	443.22	-439.93	297.55	481.07	-368.8	348.71	463.01	-477.47	102.65	438.27	-448.03	107.17	344.28	-549.56	73.048	380.1	-534.55	43.175	351.3	-540.5	42.453	415.84	-350.34	35.781	475.91	-316.55	39.674	350.85	-254.52	56.457	407.22	-526.14	666.44	129.39	-440.99	607.67	92.441	-500.12	579.34	137.08	-472.61	697.37	91.737	-454.32	511.66	97.684	-388.31	495.64	235.96	-573.06	465.52	96.935	-610.31	360.1	112.04	-633.82	413.13	106.17	-544.1	406.94	101.45	-803.89	295	153.91	-764.75	267.16	241.71	-861.22	326.99	216.67	-870.4	301.03	249.24	-884.41	309.59	189.6	-791.57	140.09	111.74	-752.16	106.64	225.5	-712.42	73.664	161.55	-577.91	1576.6	345.8	-679.97	1256.4	351.46
160	0.6625	-367.77	1255.3	300.41	-461.24	1501.3	494.93	-506.98	1531.5	167.82	-489.9	1835.5	345.04	-401.52	1014.4	451.65	-423.69	1005.6	185.85	-646.68	1052.4	377.88	-656.75	1045.6	275.73	-468.17	966.07	538.98	-533.67	950.9	115.63	-487.62	1107.4	527.59	-536.97	1088.2	121.76	-664.41	1012.3	328.19	-411.58	661.26	510.26	-329.02	608.68	474.83	-390	578.06	483.53	-347.27	694.43	501.34	-355.6	520.02	472.21	-360.87	526.71	331.2	-425.06	366.42	493.27	-379.98	278.44	443.33	-439.4	297.68	481.11	-368.11	348.64	463.13	-477.36	102.79	438.29	-447.9	107.31	344.32	-549.49	73.2	380.12	-534.51	43.332	351.31	-540.45	42.588	415.85	-350.3	35.747	475.93	-316.52	39.717	350.91	-254.49	56.388	407.29	-517.26	668.04	129.3	-431.58	610.15	92.528	-490.18	581.21	137.12	-464.02	699.47	91.644	-443.96	514.12	97.957	-377.9	498.77	236.36	-562.47	467.43	97.587	-599.46	361.95	112.31	-622.88	414.6	106.7	-533.09	409.06	101.87	-792.01	295.26	154.51	-752.56	267.78	242.28	-849.67	326.55	217.31	-858.57	300.49	249.87	-872.67	308.93	190.22	-777.99	140.63	112.25	-738.19	107.53	225.95	-698.15	75.061	161.96	-572.64	1578	346.31	-674.53	1257.7	352.02
161	0.66667	-362.56	1257	300.3	-455.78	1502.8	495.15	-502.05	1533.2	168.17	-484.49	1837	345.72	-396.11	1015.5	451.75	-418.41	1007.5	186	-641.25	1053.8	378.18	-651.27	1047.2	275.99	-463.06	966.95	539	-528.14	952.82	115.76	-482.02	1108.8	527.71	-532.01	1090.1	122.05	-659	1013.8	328.42	-408.91	661.74	510.24	-326.84	608.41	474.81	-388.24	578.3	483.54	-344.32	694.33	501.25	-354.31	519.95	472.25	-359.55	526.6	331.27	-424.43	366.54	493.32	-379.53	278.44	443.44	-438.94	297.83	481.15	-367.5	348.61	463.24	-477.26	102.92	438.3	-447.77	107.46	344.35	-549.41	73.36	380.13	-534.47	43.5	351.32	-540.4	42.736	415.85	-350.27	35.712	475.97	-316.5	39.755	350.96	-254.45	56.313	407.35	-508.47	669.72	129.13	-422.21	612.72	92.629	-480.35	583.16	137.06	-455.44	701.63	91.534	-433.66	516.6	98.248	-367.61	501.97	236.78	-551.93	469.22	98.211	-588.41	363.63	112.64	-611.94	415.88	107.19	-522.07	411.09	102.3	-779.99	295.14	155.06	-740.25	268.16	242.84	-838.05	325.7	217.85	-846.65	299.57	250.41	-860.81	307.82	190.76	-764.07	140.8	112.84	-723.91	108.21	226.54	-683.49	76.267	162.56	-567.38	1579.4	346.79	-669.05	1259.1	352.57
162	0.67083	-357.37	1258.6	300.2	-450.33	1504.4	495.35	-497.13	1534.8	168.5	-479.09	1838.5	346.34	-390.73	1016.6	451.86	-413.13	1009.5	186.16	-635.83	1055.3	378.44	-645.78	1048.8	276.22	-457.97	967.85	539.01	-522.59	954.8	115.86	-476.42	1110.2	527.81	-527.02	1092.1	122.33	-653.6	1015.3	328.61	-406.32	662.25	510.22	-324.76	608.15	474.78	-386.57	578.58	483.54	-341.45	694.25	501.14	-353.12	519.91	472.29	-358.31	526.54	331.33	-423.88	366.69	493.36	-379.14	278.47	443.55	-438.54	298.01	481.18	-366.97	348.61	463.36	-477.16	103.07	438.31	-447.64	107.62	344.39	-549.33	73.53	380.13	-534.43	43.676	351.32	-540.35	42.896	415.85	-350.24	35.675	476	-316.47	39.789	351.02	-254.4	56.233	407.42	-499.75	671.47	128.87	-412.87	615.35	92.746	-470.63	585.19	136.91	-446.89	703.86	91.41	-423.44	519.11	98.556	-357.44	505.23	237.21	-541.44	470.86	98.804	-577.1	365.11	113.04	-601	416.97	107.65	-511.04	413.02	102.74	-767.85	294.66	155.58	-727.82	268.27	243.4	-826.35	324.46	218.31	-834.64	298.28	250.89	-848.84	306.28	191.21	-749.83	140.62	113.52	-709.33	108.68	227.25	-668.47	77.284	163.33	-562.12	1580.9	347.24	-663.53	1260.5	353.12
163	0.675	-352.18	1260.3	300.13	-444.89	1506	495.55	-492.2	1536.5	168.81	-473.68	1840	346.89	-385.37	1017.8	451.97	-407.84	1011.5	186.34	-630.42	1056.8	378.67	-640.29	1050.5	276.4	-452.91	968.77	539	-517.01	956.82	115.94	-470.82	1111.6	527.88	-522	1094.1	122.62	-648.18	1016.9	328.75	-403.81	662.78	510.18	-322.76	607.92	474.75	-384.97	578.88	483.53	-338.66	694.19	501.02	-352.02	519.91	472.33	-357.14	526.5	331.37	-423.4	366.87	493.39	-378.8	278.53	443.66	-438.21	298.21	481.19	-366.49	348.65	463.47	-477.06	103.22	438.32	-447.51	107.78	344.42	-549.25	73.71	380.13	-534.37	43.862	351.31	-540.3	43.07	415.85	-350.21	35.638	476.04	-316.44	39.819	351.07	-254.36	56.148	407.48	-491.12	673.29	128.54	-403.57	618.04	92.877	-461.05	587.27	136.67	-438.35	706.13	91.27	-413.29	521.62	98.881	-347.39	508.54	237.65	-531.01	472.37	99.362	-565.55	366.4	113.5	-590.06	417.87	108.08	-500.02	414.86	103.19	-755.57	293.83	156.07	-715.27	268.14	243.95	-814.57	322.85	218.68	-822.53	296.62	251.29	-836.75	304.32	191.59	-735.28	140.11	114.28	-694.48	108.95	228.07	-653.11	78.117	164.24	-556.87	1582.3	347.67	-657.95	1261.9	353.66
164	0.67917	-347.01	1262.1	300.08	-439.46	1507.7	495.73	-487.26	1538.1	169.12	-468.28	1841.5	347.38	-380.03	1019	452.07	-402.54	1013.6	186.53	-625.02	1058.3	378.86	-634.79	1052.1	276.55	-447.87	969.7	538.97	-511.42	958.87	115.99	-465.22	1113.1	527.93	-516.95	1096.2	122.9	-642.77	1018.5	328.85	-401.37	663.33	510.12	-320.85	607.7	474.72	-383.45	579.21	483.51	-335.94	694.14	500.9	-351.02	519.95	472.35	-356.03	526.5	331.41	-422.99	367.07	493.4	-378.5	278.63	443.78	-437.93	298.44	481.2	-366.08	348.73	463.59	-476.96	103.38	438.32	-447.38	107.95	344.46	-549.15	73.902	380.12	-534.32	44.057	351.3	-540.25	43.258	415.84	-350.18	35.601	476.08	-316.41	39.845	351.13	-254.31	56.058	407.55	-482.56	675.17	128.13	-394.31	620.79	93.026	-451.59	589.4	136.35	-429.86	708.45	91.116	-403.22	524.14	99.22	-337.46	511.89	238.1	-520.63	473.72	99.88	-553.74	367.48	114.03	-579.12	418.56	108.46	-489	416.6	103.65	-743.16	292.66	156.53	-702.6	267.75	244.49	-802.68	320.86	218.99	-810.31	294.6	251.64	-824.53	301.96	191.9	-720.44	139.29	115.08	-679.35	109.01	228.97	-637.42	78.773	165.26	-551.61	1583.8	348.07	-652.32	1263.4	354.19
165	0.68333	-341.85	1263.9	300.05	-434.02	1509.4	495.89	-482.31	1539.8	169.41	-462.88	1843	347.8	-374.71	1020.3	452.18	-397.24	1015.6	186.74	-619.63	1059.8	379.02	-629.29	1053.8	276.65	-442.85	970.64	538.92	-505.81	960.95	116.01	-459.62	1114.6	527.96	-511.86	1098.2	123.17	-637.36	1020.1	328.91	-399.01	663.91	510.05	-319.02	607.51	474.7	-381.99	579.57	483.48	-333.29	694.11	500.76	-350.09	520.02	472.38	-354.97	526.52	331.45	-422.64	367.3	493.41	-378.24	278.75	443.9	-437.7	298.69	481.2	-365.72	348.83	463.7	-476.85	103.55	438.32	-447.24	108.12	344.49	-549.05	74.107	380.1	-534.25	44.26	351.28	-540.19	43.462	415.82	-350.16	35.565	476.12	-316.38	39.867	351.19	-254.25	55.962	407.61	-474.08	677.08	127.65	-385.09	623.57	93.191	-442.26	591.58	135.95	-421.4	710.81	90.949	-393.22	526.66	99.574	-327.67	515.26	238.56	-510.31	474.93	100.36	-541.71	368.36	114.62	-568.17	419.06	108.81	-477.98	418.23	104.13	-730.61	291.16	156.97	-689.8	267.11	245.02	-790.7	318.52	219.25	-797.97	292.23	251.95	-812.18	299.22	192.17	-705.32	138.18	115.93	-663.96	108.88	229.93	-621.42	79.264	166.37	-546.35	1585.3	348.45	-646.64	1264.9	354.72
